<?xml version="1.0" encoding="utf-8"?>
<svg viewBox="22.073 15.956 462.75 462.75" xmlns="http://www.w3.org/2000/svg">
  <ellipse style="stroke: rgb(0, 0, 0); paint-order: fill; stroke-linejoin: round; fill: rgb(20, 20, 20);" cx="253.448" cy="247.331" rx="231.375" ry="231.375"/>
  <g id="layer1" transform="matrix(1.5680720806121826, 0, 0, 1.5680720806121826, 176.63192749023438, 84.85102844238281)" style="">
    <g id="g4182" transform="matrix(1, 0, 0, 1, 1.161511, -1.161511)">
      <g id="g5747" transform="translate(81.631 113.771) scale(.29074)">
        <path id="path4155" class="st0" d="M-52.5-412.3l-.3 168-.3 168-13.8-39v-.1l-17.9 374c17.6 49.6 27 76.1 27.1 76.2.1.1 10.1.7 22.2 1.3 36.6 1.8 82 5.7 116.5 10 8 1 14.8 1.5 15.3 1.1s.6-171.4.5-380.1l-.3-379.4h-149z" style="fill: rgb(177, 6, 15); stroke: rgb(0, 0, 0);"/>
        <path id="path4157" class="st0" d="M-322-412.8V-33c0 208.9.2 380 .5 380.3.3.3 13.2-1 28.8-2.7 15.6-1.7 37.1-3.9 47.8-4.8 16.4-1.4 65.6-4.5 71.2-4.6 1.7 0 1.8-8.5 2-160.9l.3-160.9 11.9 33.6c1.8 5.2 2.4 6.8 4.2 11.9l17.9-373.9c-3.8-10.7-1.8-5.1-6.1-17.3-14.6-41.3-27-76.2-27.5-77.8l-1-2.8h-150z" style="fill: rgb(177, 6, 15); stroke: rgb(0, 0, 0);"/>
        <path id="path5715" class="st0" d="M-52.5-412.3l-.3 168-.3 168-13.8-39v-.1l-17.9 374c17.6 49.6 27 76.1 27.1 76.2.1.1 10.1.7 22.2 1.3 36.6 1.8 82 5.7 116.5 10 8 1 14.8 1.5 15.3 1.1s.6-171.4.5-380.1l-.3-379.4h-149z" style="fill: rgb(177, 6, 15); stroke: rgb(0, 0, 0);"/>
        <path id="path5717" class="st0" d="M-322-412.8V-33c0 208.9.2 380 .5 380.3.3.3 13.2-1 28.8-2.7 15.6-1.7 37.1-3.9 47.8-4.8 16.4-1.4 65.6-4.5 71.2-4.6 1.7 0 1.8-8.5 2-160.9l.3-160.9 11.9 33.6c1.8 5.2 2.4 6.8 4.2 11.9l17.9-373.9c-3.8-10.7-1.8-5.1-6.1-17.3-14.6-41.3-27-76.2-27.5-77.8l-1-2.8h-150z" style="fill: rgb(177, 6, 15); stroke: rgb(0, 0, 0);"/>
        <radialGradient id="path5719_1_" cx="18038.016" cy="-146.44" r="368.717" gradientTransform="matrix(.07072 -.02449 -.897 -2.5906 -1526.665 25.194)" gradientUnits="userSpaceOnUse">
          <stop offset="0"/>
          <stop offset="1" stop-opacity="0"/>
        </radialGradient>
        <path id="path5719" class="st1" d="M-322-412.8v213.2l150.2 398.4c0-9.1 0-14.1.1-24.5l.3-160.9 11.9 33.6C-93.5 234.2-58 334.6-57.8 334.8c.1.1 10.1.7 22.2 1.3 36.6 1.8 82 5.7 116.5 10 8 1 14.8 1.5 15.3 1.1.3-.3.5-84.1.5-202.4L-52.7-285l-.1 40.7-.3 168-13.8-39c-13.5-38.1-22.5-63.6-76.8-217-14.6-41.3-27-76.2-27.5-77.8l-1-2.8H-322v.1z" style="fill: url(#path5719_1_);"/>
        <path id="path5721" class="st2" d="M-322-412.8l150.5 426.5v-.2l11.9 33.6C-93.5 234.2-58 334.6-57.8 334.8c.1.1 10.1.7 22.2 1.3 36.6 1.8 82 5.7 116.5 10 7.9 1 14.8 1.5 15.2 1.1L-53.1-76.4v.1l-13.8-39c-13.5-38.1-22.5-63.6-76.8-217-14.6-41.3-27-76.2-27.5-77.8l-1-2.8h-74.9l-74.9.1z" style="fill: rgb(229, 9, 20);"/>
      </g>
    </g>
  </g>
  <g transform="matrix(1.0460389852523804, 0, 0, 1.0460389852523804, -465.66247558593744, 101.45044708251953)" style="">
    <path fill-rule="evenodd" clip-rule="evenodd" d="M 662.846 71.873 C 687.01 60.885 716.491 65.313 736.388 85.211 L 760.998 109.82 C 761.244 110.068 761.489 110.313 761.732 110.552 C 765.07 113.882 767.951 116.759 769.696 120.034 C 773.537 127.258 773.537 135.919 769.696 143.141 C 767.951 146.417 765.07 149.293 761.732 152.621 C 761.489 152.864 761.244 153.108 760.998 153.355 L 760.57 153.782 C 757.369 156.983 752.178 156.983 748.977 153.782 C 745.775 150.579 745.775 145.388 748.977 142.187 L 749.402 141.76 C 753.899 137.265 754.789 136.246 755.221 135.439 C 756.501 133.031 756.501 130.145 755.221 127.736 C 754.789 126.929 753.899 125.912 749.402 121.414 L 724.793 96.804 C 709.888 81.898 687.778 78.548 669.633 86.799 C 665.511 88.673 660.649 86.852 658.776 82.731 C 656.902 78.61 658.724 73.748 662.846 71.873 Z" style="transform-box: fill-box; transform-origin: 50% 50%; fill: rgb(20, 20, 20);"/>
    <path fill-rule="evenodd" clip-rule="evenodd" d="M 611.983 70.232 C 614.764 66.657 619.916 66.013 623.488 68.794 L 771.06 183.572 C 774.634 186.35 775.279 191.502 772.498 195.076 C 769.719 198.649 764.567 199.294 760.994 196.514 L 736.719 177.634 L 736.386 177.965 C 710.775 203.579 669.246 203.579 643.632 177.965 L 625.861 160.192 C 620.72 155.053 616.292 150.625 613.222 146.603 C 609.933 142.291 607.443 137.498 607.443 131.589 C 607.443 125.678 609.933 120.884 613.222 116.575 C 616.292 112.55 620.72 108.124 625.861 102.984 L 632.371 96.474 L 613.422 81.737 C 609.849 78.956 609.205 73.805 611.983 70.232 Z M 697.038 146.772 L 710.885 157.54 C 705.342 161.829 698.387 164.381 690.835 164.381 C 672.727 164.381 658.044 149.7 658.044 131.589 C 658.044 126.951 659.005 122.539 660.742 118.54 L 674.597 129.316 C 674.494 130.058 674.439 130.817 674.439 131.589 C 674.439 140.646 681.78 147.985 690.835 147.985 C 693.032 147.985 695.126 147.554 697.038 146.772 Z" style="transform-box: fill-box; transform-origin: 50% 50%; fill: rgb(20, 20, 20);"/>
  </g>
</svg>